<?xml version="1.0" encoding="utf-8"?>
<!-- Generator: Adobe Illustrator 21.1.0, SVG Export Plug-In . SVG Version: 6.00 Build 0)  -->
<svg version="1.1" id="Capa_1" xmlns="http://www.w3.org/2000/svg" xmlns:xlink="http://www.w3.org/1999/xlink" x="0px" y="0px"
	 viewBox="0 0 100 100" style="enable-background:new 0 0 100 100;" xml:space="preserve">
<path d="M24.5,14.7H43c1.1,0,2,0.9,2,2v66.6c0,1.1-0.9,2-2,2H24.5c-1.1,0-2-0.9-2-2V16.7C22.5,15.6,23.4,14.7,24.5,14.7z"/>
<path d="M57,14.7h18.5c1.1,0,2,0.9,2,2v66.6c0,1.1-0.9,2-2,2H57c-1.1,0-2-0.9-2-2V16.7C55,15.6,55.9,14.7,57,14.7z"/>
</svg>
